<?xml version="1.0" encoding="iso-8859-1"?>
<!-- Generator: Adobe Illustrator 19.0.0, SVG Export Plug-In . SVG Version: 6.00 Build 0)  -->
<svg version="1.1" id="Layer_1" xmlns="http://www.w3.org/2000/svg" xmlns:xlink="http://www.w3.org/1999/xlink" x="0px" y="0px"
	 viewBox="0 0 496.131 496.131" style="enable-background:new 0 0 496.131 496.131;" xml:space="preserve">
<path style="fill:#FFC200;" d="M154.731,401.215l-14.4-45.6c-0.8-3.2-4-5.6-7.2-5.6h-110.4c-3.2,0-6.4,2.4-7.2,5.6l-15.2,47.2
	c-0.8,2.4,0,4.8,0.8,6.4c1.6,1.6,4,3.2,6.4,3.2h140l0,0c4,0,7.2-3.2,7.2-7.2C155.531,403.615,155.531,402.815,154.731,401.215z"/>
<path style="fill:#FFB000;" d="M0.331,402.815c-0.8,2.4,0,4.8,0.8,6.4c1.6,1.6,4,3.2,6.4,3.2h140l0,0c4,0,7.2-3.2,7.2-7.2
	c0-1.6,0-2.4-0.8-4l-14.4-45.6"/>
<path style="fill:#FF9700;" d="M0.331,402.815c-0.8,2.4,0,4.8,0.8,6.4c1.6,1.6,4,3.2,6.4,3.2h140l0,0c4,0,7.2-3.2,7.2-7.2
	c0-1.6,0-2.4-0.8-4"/>
<path style="fill:#FFDA00;" d="M140.331,356.415c-0.8-3.2-4-5.6-7.2-5.6h-110.4c-3.2,0-6.4,2.4-7.2,5.6"/>
<g>
	<path style="fill:#FFC200;" d="M325.131,401.215l-14.4-45.6c-0.8-3.2-4-5.6-7.2-5.6h-110.4c-3.2,0-6.4,2.4-7.2,5.6l-15.2,46.4
		c-0.8,2.4,0,4.8,0.8,6.4c1.6,1.6,4,3.2,6.4,3.2h140l0,0c4,0,7.2-3.2,7.2-7.2C325.931,403.615,325.931,402.815,325.131,401.215z"/>
</g>
<path style="fill:#FFB000;" d="M170.731,402.815c-0.8,2.4,0,4.8,0.8,6.4c1.6,1.6,4,3.2,6.4,3.2h140l0,0c4,0,7.2-3.2,7.2-7.2
	c0-1.6,0-2.4-0.8-4l-14.4-45.6"/>
<path style="fill:#FF9700;" d="M170.731,402.815c-0.8,2.4,0,4.8,0.8,6.4c1.6,1.6,4,3.2,6.4,3.2h140l0,0c4,0,7.2-3.2,7.2-7.2
	c0-1.6,0-2.4-0.8-4"/>
<path style="fill:#FFDA00;" d="M310.731,356.415c-0.8-3.2-4-5.6-7.2-5.6h-110.4c-3.2,0-6.4,2.4-7.2,5.6"/>
<g>
	<path style="fill:#FFC200;" d="M495.531,401.215l-14.4-45.6c-0.8-3.2-4-5.6-7.2-5.6h-110.4c-3.2,0-6.4,2.4-7.2,5.6l-15.2,46.4
		c-0.8,2.4,0,4.8,0.8,6.4c1.6,1.6,4,3.2,6.4,3.2h140l0,0c4,0,7.2-3.2,7.2-7.2C496.331,403.615,496.331,402.815,495.531,401.215z"/>
</g>
<path style="fill:#FFB000;" d="M341.131,402.815c-0.8,2.4,0,4.8,0.8,6.4c1.6,1.6,4,3.2,6.4,3.2h140l0,0c4,0,7.2-3.2,7.2-7.2
	c0-1.6,0-2.4-0.8-4l-14.4-45.6"/>
<path style="fill:#FF9700;" d="M341.131,402.815c-0.8,2.4,0,4.8,0.8,6.4c1.6,1.6,4,3.2,6.4,3.2h140l0,0c4,0,7.2-3.2,7.2-7.2
	c0-1.6,0-2.4-0.8-4"/>
<path style="fill:#FFDA00;" d="M481.131,356.415c-0.8-3.2-4-5.6-7.2-5.6h-110.4c-3.2,0-6.4,2.4-7.2,5.6"/>
<g>
	<path style="fill:#FFC200;" d="M240.331,318.815l-14.4-45.6c-0.8-3.2-4-5.6-7.2-5.6h-111.2c-3.2,0-6.4,2.4-7.2,5.6l-14.4,47.2
		c-0.8,2.4,0,4.8,0.8,6.4c1.6,1.6,4,3.2,6.4,3.2h140l0,0c4,0,7.2-3.2,7.2-7.2C241.131,321.215,240.331,320.415,240.331,318.815z"/>
</g>
<path style="fill:#FFB000;" d="M85.931,320.415c-0.8,2.4,0,4.8,0.8,6.4c1.6,1.6,4,3.2,6.4,3.2h140l0,0c4,0,7.2-3.2,7.2-7.2
	c0-1.6,0-2.4-0.8-4l-14.4-45.6"/>
<path style="fill:#FF9700;" d="M85.931,320.415c-0.8,2.4,0,4.8,0.8,6.4c1.6,1.6,4,3.2,6.4,3.2h140l0,0c4,0,7.2-3.2,7.2-7.2
	c0-1.6,0-2.4-0.8-4"/>
<path style="fill:#FFDA00;" d="M225.131,274.015c-0.8-3.2-4-5.6-7.2-5.6h-110.4c-3.2,0-6.4,2.4-7.2,5.6"/>
<g>
	<path style="fill:#FFC200;" d="M409.931,318.815l-14.4-45.6c-0.8-3.2-4-5.6-7.2-5.6h-110.4c-3.2,0-6.4,2.4-7.2,5.6l-14.4,47.2
		c-0.8,2.4,0,4.8,0.8,6.4c1.6,1.6,4,3.2,6.4,3.2h140l0,0c4,0,7.2-3.2,7.2-7.2C411.531,321.215,410.731,320.415,409.931,318.815z"/>
</g>
<path style="fill:#FFB000;" d="M256.331,320.415c-0.8,2.4,0,4.8,0.8,6.4c1.6,1.6,4,3.2,6.4,3.2h140l0,0c4,0,7.2-3.2,7.2-7.2
	c0-1.6,0-2.4-0.8-4l-14.4-45.6"/>
<path style="fill:#FF9700;" d="M256.331,320.415c-0.8,2.4,0,4.8,0.8,6.4c1.6,1.6,4,3.2,6.4,3.2h140l0,0c4,0,7.2-3.2,7.2-7.2
	c0-1.6,0-2.4-0.8-4"/>
<path style="fill:#FFDA00;" d="M395.531,274.015c-0.8-3.2-4-5.6-7.2-5.6h-110.4c-3.2,0-6.4,2.4-7.2,5.6"/>
<g>
	<path style="fill:#FFC200;" d="M325.131,238.815l-14.4-45.6c-0.8-3.2-4-5.6-7.2-5.6h-110.4c-3.2,0-6.4,2.4-7.2,5.6l-15.2,47.2
		c-0.8,2.4,0,4.8,0.8,6.4c1.6,1.6,4,3.2,6.4,3.2h140l0,0c4,0,7.2-3.2,7.2-7.2C325.931,241.215,325.931,240.415,325.131,238.815z"/>
</g>
<path style="fill:#FFB000;" d="M170.731,240.415c-0.8,2.4,0,4.8,0.8,6.4c1.6,1.6,4,3.2,6.4,3.2h140l0,0c4,0,7.2-3.2,7.2-7.2
	c0-1.6,0-2.4-0.8-4l-14.4-45.6"/>
<path style="fill:#FF9700;" d="M170.731,240.415c-0.8,2.4,0,4.8,0.8,6.4c1.6,1.6,4,3.2,6.4,3.2h140l0,0c4,0,7.2-3.2,7.2-7.2
	c0-1.6,0-2.4-0.8-4"/>
<path style="fill:#FFDA00;" d="M310.731,193.215c-0.8-3.2-4-5.6-7.2-5.6h-110.4c-3.2,0-6.4,2.4-7.2,5.6"/>
<g>
	<path style="fill:#FFDA00;" d="M147.531,141.215c0,31.2-1.6,56.8-3.2,56.8c-1.6,0-3.2-25.6-3.2-56.8s1.6-56.8,3.2-56.8
		C146.731,84.415,147.531,110.015,147.531,141.215z"/>
	<path style="fill:#FFDA00;" d="M145.131,143.615c-31.2,0-56.8-1.6-56.8-3.2c0-1.6,25.6-3.2,56.8-3.2s56.8,1.6,56.8,3.2
		C201.931,142.815,176.331,143.615,145.131,143.615z"/>
</g>
<g>
	
		<ellipse transform="matrix(0.7097 -0.7045 0.7045 0.7097 24.1004 268.8141)" style="fill:#FFB000;" cx="338.232" cy="105.163" rx="30.4" ry="1.6"/>
	<path style="fill:#FFB000;" d="M337.131,106.815c-12-12-20.8-21.6-20-22.4s10.4,8.8,22.4,20c12,12,20.8,21.6,20,22.4
		S349.131,118.815,337.131,106.815z"/>
</g>
<g>
	<ellipse style="fill:#FF9700;" cx="410.731" cy="236.415" rx="0.8" ry="22.4"/>
	<path style="fill:#FF9700;" d="M410.731,238.015c-12,0-22.4-0.8-22.4-0.8c0-0.8,10.4-0.8,22.4-0.8s22.4,0.8,22.4,0.8
		S423.531,238.015,410.731,238.015z"/>
</g>
<g>
</g>
<g>
</g>
<g>
</g>
<g>
</g>
<g>
</g>
<g>
</g>
<g>
</g>
<g>
</g>
<g>
</g>
<g>
</g>
<g>
</g>
<g>
</g>
<g>
</g>
<g>
</g>
<g>
</g>
</svg>
